<?xml version="1.0" encoding="UTF-8"?>
<svg xmlns="http://www.w3.org/2000/svg" xmlns:xlink="http://www.w3.org/1999/xlink" width="987pt" height="209.999996pt" viewBox="0 0 987 209.999996" version="1.2">
<g id="surface1">
<path style=" stroke:none;fill-rule:nonzero;fill:rgb(29.019165%,86.268616%,69.018555%);fill-opacity:1;" d="M 784.078125 -48.261719 C 781.964844 -48.261719 779.855469 -48.210938 777.742188 -48.105469 C 775.632812 -48.003906 773.523438 -47.847656 771.421875 -47.640625 C 769.320312 -47.433594 767.222656 -47.175781 765.132812 -46.863281 C 763.042969 -46.554688 760.960938 -46.195312 758.886719 -45.78125 C 756.8125 -45.371094 754.753906 -44.90625 752.703125 -44.394531 C 750.652344 -43.878906 748.617188 -43.316406 746.59375 -42.703125 C 744.570312 -42.089844 742.566406 -41.425781 740.574219 -40.714844 C 738.585938 -40.003906 736.613281 -39.242188 734.664062 -38.433594 C 732.710938 -37.625 730.777344 -36.769531 728.867188 -35.863281 C 726.957031 -34.960938 725.070312 -34.011719 723.207031 -33.015625 C 721.34375 -32.019531 719.503906 -30.976562 717.691406 -29.890625 C 715.878906 -28.804688 714.09375 -27.675781 712.335938 -26.5 C 710.582031 -25.324219 708.851562 -24.109375 707.15625 -22.851562 C 705.457031 -21.589844 703.792969 -20.292969 702.160156 -18.953125 C 700.527344 -17.609375 698.925781 -16.230469 697.359375 -14.8125 C 695.792969 -13.390625 694.265625 -11.933594 692.769531 -10.441406 C 691.273438 -8.945312 689.816406 -7.417969 688.398438 -5.851562 C 686.980469 -4.285156 685.601562 -2.683594 684.257812 -1.050781 C 682.917969 0.582031 681.617188 2.246094 680.359375 3.945312 C 679.101562 5.640625 677.882812 7.371094 676.710938 9.128906 C 675.535156 10.882812 674.40625 12.667969 673.320312 14.480469 C 672.234375 16.292969 671.191406 18.132812 670.195312 19.996094 C 669.199219 21.859375 668.25 23.746094 667.347656 25.65625 C 666.441406 27.566406 665.585938 29.5 664.777344 31.453125 C 663.96875 33.40625 663.207031 35.375 662.496094 37.367188 C 661.785156 39.355469 661.121094 41.363281 660.507812 43.382812 C 659.894531 45.40625 659.332031 47.441406 658.816406 49.492188 C 658.304688 51.542969 657.839844 53.605469 657.429688 55.675781 C 657.015625 57.75 656.65625 59.832031 656.34375 61.921875 C 656.035156 64.011719 655.777344 66.109375 655.570312 68.210938 C 655.363281 70.316406 655.207031 72.421875 655.101562 74.53125 C 655 76.644531 654.949219 78.753906 654.949219 80.867188 C 654.949219 82.980469 655 85.09375 655.101562 87.203125 C 655.207031 89.316406 655.363281 91.421875 655.570312 93.527344 C 655.777344 95.628906 656.035156 97.726562 656.34375 99.816406 C 656.65625 101.90625 657.015625 103.988281 657.429688 106.0625 C 657.839844 108.132812 658.304688 110.195312 658.816406 112.246094 C 659.332031 114.296875 659.894531 116.332031 660.507812 118.351562 C 661.121094 120.375 661.785156 122.382812 662.496094 124.371094 C 663.207031 126.363281 663.96875 128.332031 664.777344 130.285156 C 665.585938 132.238281 666.441406 134.167969 667.347656 136.078125 C 668.25 137.988281 669.199219 139.875 670.195312 141.742188 C 671.191406 143.605469 672.234375 145.441406 673.320312 147.253906 C 674.40625 149.066406 675.535156 150.851562 676.710938 152.609375 C 677.882812 154.367188 679.101562 156.09375 680.359375 157.792969 C 681.617188 159.488281 682.917969 161.15625 684.257812 162.789062 C 685.601562 164.421875 686.980469 166.023438 688.398438 167.589844 C 689.816406 169.152344 691.273438 170.683594 692.769531 172.179688 C 694.265625 173.671875 695.792969 175.128906 697.359375 176.546875 C 698.925781 177.96875 700.527344 179.347656 702.160156 180.6875 C 703.792969 182.027344 705.457031 183.328125 707.15625 184.585938 C 708.851562 185.847656 710.582031 187.0625 712.335938 188.238281 C 714.09375 189.410156 715.878906 190.542969 717.691406 191.628906 C 719.503906 192.714844 721.34375 193.757812 723.207031 194.753906 C 725.070312 195.75 726.957031 196.699219 728.867188 197.601562 C 730.777344 198.503906 732.710938 199.363281 734.664062 200.171875 C 736.613281 200.980469 738.585938 201.738281 740.574219 202.453125 C 742.566406 203.164062 744.570312 203.824219 746.59375 204.441406 C 748.617188 205.054688 750.652344 205.617188 752.703125 206.128906 C 754.753906 206.644531 756.8125 207.105469 758.886719 207.519531 C 760.960938 207.929688 763.042969 208.292969 765.132812 208.601562 C 767.222656 208.914062 769.320312 209.171875 771.421875 209.378906 C 773.523438 209.585938 775.632812 209.742188 777.742188 209.84375 C 779.855469 209.949219 781.964844 210 784.078125 210 C 786.191406 210 788.304688 209.949219 790.414062 209.84375 C 792.527344 209.742188 794.632812 209.585938 796.734375 209.378906 C 798.839844 209.171875 800.9375 208.914062 803.027344 208.601562 C 805.117188 208.292969 807.199219 207.929688 809.269531 207.519531 C 811.34375 207.105469 813.40625 206.644531 815.457031 206.128906 C 817.503906 205.617188 819.542969 205.054688 821.5625 204.441406 C 823.585938 203.824219 825.59375 203.164062 827.582031 202.453125 C 829.570312 201.738281 831.542969 200.980469 833.496094 200.171875 C 835.449219 199.363281 837.378906 198.503906 839.289062 197.601562 C 841.199219 196.699219 843.085938 195.75 844.953125 194.753906 C 846.816406 193.757812 848.652344 192.714844 850.464844 191.628906 C 852.277344 190.542969 854.0625 189.410156 855.820312 188.238281 C 857.578125 187.0625 859.304688 185.847656 861.003906 184.585938 C 862.699219 183.328125 864.367188 182.027344 866 180.6875 C 867.632812 179.347656 869.234375 177.96875 870.796875 176.546875 C 872.363281 175.128906 873.894531 173.671875 875.390625 172.179688 C 876.882812 170.683594 878.339844 169.152344 879.757812 167.589844 C 881.179688 166.023438 882.558594 164.421875 883.898438 162.789062 C 885.238281 161.15625 886.539062 159.488281 887.796875 157.792969 C 889.058594 156.09375 890.273438 154.367188 891.449219 152.609375 C 892.621094 150.851562 893.753906 149.066406 894.839844 147.253906 C 895.925781 145.441406 896.964844 143.605469 897.960938 141.742188 C 898.960938 139.875 899.910156 137.988281 900.8125 136.078125 C 901.714844 134.167969 902.570312 132.238281 903.382812 130.285156 C 904.191406 128.332031 904.949219 126.363281 905.660156 124.371094 C 906.375 122.382812 907.035156 120.375 907.648438 118.351562 C 908.261719 116.332031 908.828125 114.296875 909.339844 112.246094 C 909.855469 110.195312 910.316406 108.132812 910.730469 106.0625 C 911.140625 103.988281 911.503906 101.90625 911.8125 99.816406 C 912.121094 97.726562 912.382812 95.628906 912.589844 93.527344 C 912.796875 91.421875 912.953125 89.316406 913.054688 87.203125 C 913.160156 85.09375 913.210938 82.980469 913.210938 80.867188 C 913.210938 78.753906 913.160156 76.644531 913.054688 74.53125 C 912.953125 72.421875 912.796875 70.316406 912.589844 68.210938 C 912.382812 66.109375 912.121094 64.011719 911.8125 61.921875 C 911.503906 59.832031 911.140625 57.75 910.730469 55.675781 C 910.316406 53.605469 909.855469 51.542969 909.339844 49.492188 C 908.828125 47.441406 908.261719 45.40625 907.648438 43.382812 C 907.035156 41.363281 906.375 39.355469 905.660156 37.367188 C 904.949219 35.375 904.191406 33.40625 903.382812 31.453125 C 902.570312 29.5 901.714844 27.566406 900.8125 25.65625 C 899.910156 23.746094 898.960938 21.859375 897.960938 19.996094 C 896.964844 18.132812 895.925781 16.292969 894.839844 14.480469 C 893.753906 12.667969 892.621094 10.882812 891.449219 9.128906 C 890.273438 7.371094 889.058594 5.640625 887.796875 3.945312 C 886.539062 2.246094 885.238281 0.582031 883.898438 -1.050781 C 882.558594 -2.683594 881.179688 -4.285156 879.757812 -5.851562 C 878.339844 -7.417969 876.882812 -8.945312 875.390625 -10.441406 C 873.894531 -11.933594 872.363281 -13.390625 870.796875 -14.8125 C 869.234375 -16.230469 867.632812 -17.609375 866 -18.953125 C 864.367188 -20.292969 862.699219 -21.589844 861.003906 -22.851562 C 859.304688 -24.109375 857.578125 -25.324219 855.820312 -26.5 C 854.0625 -27.675781 852.277344 -28.804688 850.464844 -29.890625 C 848.652344 -30.976562 846.816406 -32.019531 844.953125 -33.015625 C 843.085938 -34.011719 841.199219 -34.960938 839.289062 -35.863281 C 837.378906 -36.769531 835.449219 -37.625 833.496094 -38.433594 C 831.542969 -39.242188 829.570312 -40.003906 827.582031 -40.714844 C 825.59375 -41.425781 823.585938 -42.089844 821.5625 -42.703125 C 819.542969 -43.316406 817.503906 -43.878906 815.457031 -44.394531 C 813.40625 -44.90625 811.34375 -45.371094 809.269531 -45.78125 C 807.199219 -46.195312 805.117188 -46.554688 803.027344 -46.863281 C 800.9375 -47.175781 798.839844 -47.433594 796.734375 -47.640625 C 794.632812 -47.847656 792.527344 -48.003906 790.414062 -48.105469 C 788.304688 -48.210938 786.191406 -48.261719 784.078125 -48.261719 Z M 784.078125 -48.261719 "/>
</g>
</svg>
