<?xml version="1.0" encoding="UTF-8"?>
<svg xmlns="http://www.w3.org/2000/svg" xmlns:xlink="http://www.w3.org/1999/xlink" width="1012.5pt" height="487.499991pt" viewBox="0 0 1012.5 487.499991" version="1.2">
<defs>
<clipPath id="clip1">
  <path d="M 397 0 L 1011.730469 0 L 1011.730469 487 L 397 487 Z M 397 0 "/>
</clipPath>
</defs>
<g id="surface1">
<g clip-path="url(#clip1)" clip-rule="nonzero">
<path style=" stroke:none;fill-rule:nonzero;fill:rgb(8.239746%,30.589294%,87.838745%);fill-opacity:1;" d="M 397.484375 -26.910156 L 912.660156 -244.859375 L 1130.609375 270.3125 L 615.433594 488.261719 Z M 397.484375 -26.910156 "/>
</g>
<path style=" stroke:none;fill-rule:nonzero;fill:rgb(94.898987%,72.158813%,11.759949%);fill-opacity:1;" d="M 618.195312 -48.722656 C 614.207031 -48.722656 610.222656 -48.625 606.238281 -48.429688 C 602.257812 -48.234375 598.28125 -47.941406 594.316406 -47.550781 C 590.347656 -47.160156 586.390625 -46.671875 582.445312 -46.085938 C 578.503906 -45.503906 574.574219 -44.820312 570.664062 -44.042969 C 566.753906 -43.265625 562.867188 -42.390625 559 -41.421875 C 555.132812 -40.453125 551.289062 -39.390625 547.472656 -38.234375 C 543.660156 -37.078125 539.875 -35.828125 536.121094 -34.484375 C 532.367188 -33.140625 528.648438 -31.707031 524.964844 -30.179688 C 521.28125 -28.652344 517.636719 -27.039062 514.03125 -25.332031 C 510.429688 -23.628906 506.867188 -21.835938 503.351562 -19.957031 C 499.835938 -18.078125 496.367188 -16.113281 492.949219 -14.0625 C 489.527344 -12.015625 486.160156 -9.882812 482.84375 -7.667969 C 479.53125 -5.453125 476.273438 -3.15625 473.070312 -0.78125 C 469.867188 1.59375 466.722656 4.046875 463.640625 6.574219 C 460.558594 9.105469 457.542969 11.707031 454.589844 14.386719 C 451.632812 17.0625 448.746094 19.8125 445.929688 22.628906 C 443.109375 25.449219 440.359375 28.335938 437.683594 31.289062 C 435.003906 34.246094 432.402344 37.261719 429.871094 40.34375 C 427.34375 43.425781 424.890625 46.570312 422.515625 49.773438 C 420.140625 52.972656 417.847656 56.234375 415.628906 59.546875 C 413.414062 62.863281 411.285156 66.230469 409.234375 69.652344 C 407.183594 73.070312 405.21875 76.539062 403.339844 80.054688 C 401.460938 83.570312 399.667969 87.132812 397.964844 90.734375 C 396.257812 94.339844 394.644531 97.984375 393.117188 101.667969 C 391.59375 105.351562 390.15625 109.070312 388.8125 112.824219 C 387.472656 116.578125 386.222656 120.363281 385.0625 124.175781 C 383.90625 127.992188 382.84375 131.832031 381.875 135.703125 C 380.90625 139.570312 380.03125 143.457031 379.253906 147.367188 C 378.476562 151.277344 377.796875 155.207031 377.210938 159.148438 C 376.625 163.09375 376.136719 167.050781 375.746094 171.015625 C 375.355469 174.984375 375.0625 178.960938 374.867188 182.941406 C 374.671875 186.925781 374.574219 190.910156 374.574219 194.894531 C 374.574219 198.882812 374.671875 202.867188 374.867188 206.851562 C 375.0625 210.832031 375.355469 214.808594 375.746094 218.773438 C 376.136719 222.742188 376.625 226.699219 377.210938 230.644531 C 377.796875 234.585938 378.476562 238.515625 379.253906 242.425781 C 380.03125 246.335938 380.90625 250.222656 381.875 254.089844 C 382.84375 257.957031 383.90625 261.800781 385.0625 265.617188 C 386.222656 269.429688 387.472656 273.214844 388.8125 276.96875 C 390.15625 280.722656 391.59375 284.441406 393.117188 288.125 C 394.644531 291.808594 396.257812 295.453125 397.964844 299.058594 C 399.667969 302.660156 401.460938 306.222656 403.339844 309.738281 C 405.21875 313.253906 407.183594 316.722656 409.234375 320.140625 C 411.285156 323.5625 413.414062 326.929688 415.628906 330.246094 C 417.847656 333.558594 420.140625 336.820312 422.515625 340.019531 C 424.890625 343.222656 427.34375 346.367188 429.871094 349.449219 C 432.402344 352.53125 435.003906 355.546875 437.683594 358.5 C 440.359375 361.457031 443.109375 364.34375 445.929688 367.160156 C 448.746094 369.980469 451.632812 372.730469 454.589844 375.40625 C 457.542969 378.085938 460.558594 380.6875 463.640625 383.21875 C 466.722656 385.746094 469.867188 388.199219 473.070312 390.574219 C 476.273438 392.949219 479.53125 395.246094 482.84375 397.460938 C 486.160156 399.675781 489.527344 401.808594 492.949219 403.855469 C 496.367188 405.90625 499.835938 407.871094 503.351562 409.75 C 506.867188 411.628906 510.429688 413.421875 514.03125 415.125 C 517.636719 416.832031 521.28125 418.445312 524.964844 419.972656 C 528.648438 421.496094 532.367188 422.933594 536.121094 424.277344 C 539.875 425.617188 543.660156 426.871094 547.472656 428.027344 C 551.289062 429.183594 555.132812 430.246094 559 431.214844 C 562.867188 432.183594 566.753906 433.058594 570.664062 433.835938 C 574.574219 434.613281 578.503906 435.292969 582.445312 435.878906 C 586.390625 436.464844 590.347656 436.953125 594.316406 437.34375 C 598.28125 437.734375 602.257812 438.027344 606.238281 438.222656 C 610.222656 438.417969 614.207031 438.515625 618.195312 438.515625 C 622.179688 438.515625 626.164062 438.417969 630.148438 438.222656 C 634.128906 438.027344 638.105469 437.734375 642.074219 437.34375 C 646.039062 436.953125 649.996094 436.464844 653.941406 435.878906 C 657.882812 435.292969 661.8125 434.613281 665.722656 433.835938 C 669.632812 433.058594 673.519531 432.183594 677.386719 431.214844 C 681.257812 430.246094 685.097656 429.183594 688.914062 428.027344 C 692.726562 426.871094 696.511719 425.617188 700.265625 424.277344 C 704.019531 422.933594 707.738281 421.496094 711.421875 419.972656 C 715.105469 418.445312 718.75 416.832031 722.355469 415.125 C 725.960938 413.421875 729.519531 411.628906 733.035156 409.75 C 736.550781 407.871094 740.019531 405.90625 743.441406 403.855469 C 746.859375 401.808594 750.226562 399.675781 753.542969 397.460938 C 756.855469 395.246094 760.117188 392.949219 763.316406 390.574219 C 766.519531 388.199219 769.664062 385.746094 772.746094 383.21875 C 775.828125 380.6875 778.84375 378.085938 781.800781 375.40625 C 784.753906 372.730469 787.640625 369.980469 790.460938 367.160156 C 793.277344 364.34375 796.027344 361.457031 798.703125 358.5 C 801.382812 355.546875 803.984375 352.53125 806.515625 349.449219 C 809.042969 346.367188 811.496094 343.222656 813.871094 340.019531 C 816.246094 336.820312 818.542969 333.558594 820.757812 330.246094 C 822.972656 326.929688 825.105469 323.5625 827.152344 320.140625 C 829.203125 316.722656 831.167969 313.253906 833.046875 309.738281 C 834.925781 306.222656 836.71875 302.660156 838.425781 299.058594 C 840.128906 295.453125 841.742188 291.808594 843.269531 288.125 C 844.796875 284.441406 846.230469 280.722656 847.574219 276.96875 C 848.917969 273.214844 850.167969 269.429688 851.324219 265.617188 C 852.480469 261.800781 853.542969 257.957031 854.511719 254.089844 C 855.480469 250.222656 856.355469 246.335938 857.132812 242.425781 C 857.910156 238.515625 858.59375 234.585938 859.175781 230.644531 C 859.761719 226.699219 860.25 222.742188 860.640625 218.773438 C 861.03125 214.808594 861.324219 210.832031 861.519531 206.851562 C 861.714844 202.867188 861.8125 198.882812 861.8125 194.894531 C 861.8125 190.910156 861.714844 186.925781 861.519531 182.941406 C 861.324219 178.960938 861.03125 174.984375 860.640625 171.015625 C 860.25 167.050781 859.761719 163.09375 859.175781 159.148438 C 858.59375 155.207031 857.910156 151.277344 857.132812 147.367188 C 856.355469 143.457031 855.480469 139.570312 854.511719 135.703125 C 853.542969 131.832031 852.480469 127.992188 851.324219 124.175781 C 850.167969 120.363281 848.917969 116.578125 847.574219 112.824219 C 846.230469 109.070312 844.796875 105.351562 843.269531 101.667969 C 841.742188 97.984375 840.128906 94.339844 838.425781 90.734375 C 836.71875 87.132812 834.925781 83.570312 833.046875 80.054688 C 831.167969 76.539062 829.203125 73.070312 827.152344 69.652344 C 825.105469 66.230469 822.972656 62.863281 820.757812 59.546875 C 818.542969 56.234375 816.246094 52.972656 813.871094 49.773438 C 811.496094 46.570312 809.042969 43.425781 806.515625 40.34375 C 803.984375 37.261719 801.382812 34.246094 798.703125 31.289062 C 796.027344 28.335938 793.277344 25.449219 790.460938 22.628906 C 787.640625 19.8125 784.753906 17.0625 781.800781 14.386719 C 778.84375 11.707031 775.828125 9.105469 772.746094 6.574219 C 769.664062 4.046875 766.519531 1.59375 763.316406 -0.78125 C 760.117188 -3.15625 756.855469 -5.453125 753.542969 -7.667969 C 750.226562 -9.882812 746.859375 -12.015625 743.441406 -14.0625 C 740.019531 -16.113281 736.550781 -18.078125 733.035156 -19.957031 C 729.519531 -21.835938 725.960938 -23.628906 722.355469 -25.332031 C 718.75 -27.039062 715.105469 -28.652344 711.421875 -30.179688 C 707.738281 -31.707031 704.019531 -33.140625 700.265625 -34.484375 C 696.511719 -35.828125 692.726562 -37.078125 688.914062 -38.234375 C 685.097656 -39.390625 681.257812 -40.453125 677.386719 -41.421875 C 673.519531 -42.390625 669.632812 -43.265625 665.722656 -44.042969 C 661.8125 -44.820312 657.882812 -45.503906 653.941406 -46.085938 C 649.996094 -46.671875 646.039062 -47.160156 642.074219 -47.550781 C 638.105469 -47.941406 634.128906 -48.234375 630.148438 -48.429688 C 626.164062 -48.625 622.179688 -48.722656 618.195312 -48.722656 Z M 618.195312 -48.722656 "/>
</g>
</svg>
