<?xml version="1.0" encoding="UTF-8"?>
<svg xmlns="http://www.w3.org/2000/svg" xmlns:xlink="http://www.w3.org/1999/xlink" width="1012.5pt" height="487.499991pt" viewBox="0 0 1012.5 487.499991" version="1.2">
<defs>
<clipPath id="clip1">
  <path d="M 384 0 L 1011.730469 0 L 1011.730469 487 L 384 487 Z M 384 0 "/>
</clipPath>
<clipPath id="clip2">
  <path d="M 437 130 L 829 130 L 829 487 L 437 487 Z M 437 130 "/>
</clipPath>
</defs>
<g id="surface1">
<g clip-path="url(#clip1)" clip-rule="nonzero">
<path style=" stroke:none;fill-rule:nonzero;fill:rgb(8.239746%,30.589294%,87.838745%);fill-opacity:1;" d="M 716.523438 -343.53125 L 1301.226562 -11.144531 L 968.839844 573.558594 L 384.136719 241.171875 Z M 716.523438 -343.53125 "/>
</g>
<g clip-path="url(#clip2)" clip-rule="nonzero">
<path style=" stroke:none;fill-rule:nonzero;fill:rgb(94.898987%,72.158813%,11.759949%);fill-opacity:1;" d="M 632.714844 130.3125 C 629.511719 130.3125 626.3125 130.390625 623.117188 130.546875 C 619.917969 130.703125 616.726562 130.941406 613.542969 131.253906 C 610.355469 131.566406 607.179688 131.957031 604.015625 132.429688 C 600.847656 132.898438 597.695312 133.445312 594.554688 134.070312 C 591.417969 134.695312 588.292969 135.394531 585.1875 136.171875 C 582.085938 136.949219 579 137.804688 575.9375 138.734375 C 572.875 139.664062 569.835938 140.667969 566.820312 141.746094 C 563.808594 142.824219 560.820312 143.976562 557.863281 145.199219 C 554.90625 146.425781 551.980469 147.722656 549.089844 149.089844 C 546.195312 150.457031 543.335938 151.898438 540.511719 153.40625 C 537.691406 154.914062 534.90625 156.492188 532.160156 158.136719 C 529.414062 159.785156 526.710938 161.496094 524.050781 163.273438 C 521.386719 165.054688 518.773438 166.894531 516.199219 168.800781 C 513.628906 170.710938 511.105469 172.679688 508.632812 174.707031 C 506.15625 176.738281 503.734375 178.828125 501.363281 180.980469 C 498.992188 183.128906 496.671875 185.335938 494.410156 187.597656 C 492.148438 189.863281 489.941406 192.179688 487.789062 194.550781 C 485.640625 196.921875 483.550781 199.347656 481.519531 201.820312 C 479.488281 204.296875 477.519531 206.816406 475.613281 209.390625 C 473.707031 211.960938 471.863281 214.578125 470.085938 217.238281 C 468.308594 219.898438 466.59375 222.601562 464.949219 225.347656 C 463.304688 228.09375 461.726562 230.878906 460.21875 233.703125 C 458.710938 236.523438 457.269531 239.382812 455.902344 242.277344 C 454.53125 245.171875 453.234375 248.097656 452.011719 251.054688 C 450.785156 254.011719 449.632812 256.996094 448.554688 260.011719 C 447.476562 263.023438 446.472656 266.0625 445.542969 269.125 C 444.617188 272.1875 443.761719 275.273438 442.984375 278.378906 C 442.207031 281.484375 441.503906 284.605469 440.882812 287.746094 C 440.257812 290.882812 439.710938 294.039062 439.238281 297.203125 C 438.769531 300.371094 438.378906 303.546875 438.066406 306.730469 C 437.75 309.917969 437.515625 313.109375 437.359375 316.304688 C 437.203125 319.503906 437.121094 322.703125 437.121094 325.902344 C 437.121094 329.105469 437.203125 332.304688 437.359375 335.5 C 437.515625 338.695312 437.75 341.886719 438.066406 345.074219 C 438.378906 348.261719 438.769531 351.4375 439.238281 354.601562 C 439.710938 357.769531 440.257812 360.921875 440.882812 364.0625 C 441.503906 367.199219 442.207031 370.324219 442.984375 373.425781 C 443.761719 376.53125 444.617188 379.617188 445.542969 382.679688 C 446.472656 385.742188 447.476562 388.78125 448.554688 391.796875 C 449.632812 394.808594 450.785156 397.796875 452.011719 400.753906 C 453.234375 403.710938 454.53125 406.636719 455.902344 409.527344 C 457.269531 412.421875 458.710938 415.28125 460.21875 418.105469 C 461.726562 420.925781 463.304688 423.710938 464.949219 426.457031 C 466.59375 429.203125 468.308594 431.90625 470.085938 434.566406 C 471.863281 437.230469 473.707031 439.84375 475.613281 442.417969 C 477.519531 444.988281 479.488281 447.511719 481.519531 449.984375 C 483.550781 452.460938 485.640625 454.882812 487.789062 457.253906 C 489.941406 459.625 492.148438 461.945312 494.410156 464.207031 C 496.671875 466.46875 498.992188 468.675781 501.363281 470.828125 C 503.734375 472.976562 506.15625 475.066406 508.632812 477.097656 C 511.105469 479.128906 513.628906 481.097656 516.199219 483.003906 C 518.773438 484.910156 521.386719 486.753906 524.050781 488.53125 C 526.710938 490.308594 529.414062 492.023438 532.160156 493.667969 C 534.90625 495.3125 537.691406 496.890625 540.511719 498.398438 C 543.335938 499.90625 546.195312 501.347656 549.089844 502.714844 C 551.980469 504.082031 554.90625 505.378906 557.863281 506.605469 C 560.820312 507.832031 563.808594 508.980469 566.820312 510.0625 C 569.835938 511.140625 572.875 512.144531 575.9375 513.070312 C 579 514 582.085938 514.855469 585.1875 515.632812 C 588.292969 516.410156 591.417969 517.113281 594.554688 517.734375 C 597.695312 518.359375 600.847656 518.90625 604.015625 519.378906 C 607.179688 519.847656 610.355469 520.238281 613.542969 520.550781 C 616.726562 520.867188 619.917969 521.101562 623.117188 521.257812 C 626.3125 521.414062 629.511719 521.496094 632.714844 521.496094 C 635.914062 521.496094 639.113281 521.414062 642.3125 521.257812 C 645.507812 521.101562 648.699219 520.867188 651.886719 520.550781 C 655.070312 520.238281 658.246094 519.847656 661.414062 519.378906 C 664.578125 518.90625 667.734375 518.359375 670.871094 517.734375 C 674.011719 517.113281 677.132812 516.410156 680.238281 515.632812 C 683.34375 514.855469 686.429688 514 689.492188 513.070312 C 692.554688 512.144531 695.59375 511.140625 698.605469 510.0625 C 701.621094 508.980469 704.605469 507.832031 707.5625 506.605469 C 710.519531 505.378906 713.445312 504.082031 716.339844 502.714844 C 719.234375 501.347656 722.09375 499.90625 724.914062 498.398438 C 727.738281 496.890625 730.523438 495.3125 733.269531 493.667969 C 736.015625 492.019531 738.71875 490.308594 741.378906 488.53125 C 744.039062 486.753906 746.65625 484.910156 749.226562 483.003906 C 751.796875 481.097656 754.320312 479.128906 756.796875 477.097656 C 759.269531 475.066406 761.695312 472.976562 764.066406 470.828125 C 766.4375 468.675781 768.753906 466.46875 771.019531 464.207031 C 773.28125 461.945312 775.488281 459.625 777.636719 457.253906 C 779.789062 454.882812 781.878906 452.460938 783.910156 449.984375 C 785.9375 447.511719 787.90625 444.988281 789.816406 442.417969 C 791.722656 439.84375 793.5625 437.230469 795.34375 434.566406 C 797.121094 431.90625 798.832031 429.203125 800.476562 426.457031 C 802.125 423.710938 803.703125 420.925781 805.210938 418.105469 C 806.71875 415.28125 808.15625 412.421875 809.527344 409.527344 C 810.894531 406.636719 812.191406 403.710938 813.417969 400.753906 C 814.640625 397.796875 815.792969 394.808594 816.871094 391.796875 C 817.949219 388.78125 818.953125 385.742188 819.882812 382.679688 C 820.8125 379.617188 821.667969 376.53125 822.445312 373.425781 C 823.222656 370.324219 823.921875 367.199219 824.546875 364.0625 C 825.171875 360.921875 825.71875 357.769531 826.1875 354.601562 C 826.65625 351.4375 827.050781 348.261719 827.363281 345.074219 C 827.675781 341.886719 827.914062 338.695312 828.070312 335.5 C 828.226562 332.304688 828.304688 329.105469 828.304688 325.902344 C 828.304688 322.703125 828.226562 319.503906 828.070312 316.304688 C 827.914062 313.109375 827.675781 309.917969 827.363281 306.730469 C 827.050781 303.546875 826.65625 300.371094 826.1875 297.203125 C 825.71875 294.039062 825.171875 290.882812 824.546875 287.746094 C 823.921875 284.605469 823.222656 281.484375 822.445312 278.378906 C 821.667969 275.273438 820.8125 272.1875 819.882812 269.125 C 818.953125 266.0625 817.949219 263.023438 816.871094 260.011719 C 815.792969 256.996094 814.640625 254.011719 813.417969 251.054688 C 812.191406 248.097656 810.894531 245.171875 809.527344 242.277344 C 808.15625 239.382812 806.71875 236.523438 805.210938 233.703125 C 803.703125 230.878906 802.125 228.09375 800.476562 225.347656 C 798.832031 222.601562 797.121094 219.898438 795.34375 217.238281 C 793.5625 214.578125 791.722656 211.960938 789.816406 209.390625 C 787.90625 206.816406 785.9375 204.296875 783.910156 201.820312 C 781.878906 199.347656 779.789062 196.921875 777.636719 194.550781 C 775.488281 192.179688 773.28125 189.863281 771.019531 187.597656 C 768.753906 185.335938 766.4375 183.128906 764.066406 180.980469 C 761.695312 178.828125 759.269531 176.738281 756.796875 174.707031 C 754.320312 172.679688 751.800781 170.710938 749.226562 168.800781 C 746.65625 166.894531 744.039062 165.054688 741.378906 163.273438 C 738.71875 161.496094 736.015625 159.785156 733.269531 158.136719 C 730.523438 156.492188 727.738281 154.914062 724.914062 153.40625 C 722.09375 151.898438 719.234375 150.457031 716.339844 149.089844 C 713.445312 147.722656 710.519531 146.425781 707.5625 145.199219 C 704.605469 143.976562 701.621094 142.824219 698.605469 141.746094 C 695.59375 140.667969 692.554688 139.664062 689.492188 138.734375 C 686.429688 137.804688 683.34375 136.949219 680.238281 136.171875 C 677.132812 135.394531 674.011719 134.695312 670.871094 134.070312 C 667.734375 133.445312 664.578125 132.898438 661.414062 132.429688 C 658.246094 131.957031 655.070312 131.566406 651.886719 131.253906 C 648.699219 130.941406 645.507812 130.703125 642.3125 130.546875 C 639.113281 130.390625 635.914062 130.3125 632.714844 130.3125 Z M 632.714844 130.3125 "/>
</g>
</g>
</svg>
