<?xml version="1.0" encoding="iso-8859-1"?>
<!-- Generator: Adobe Illustrator 16.0.0, SVG Export Plug-In . SVG Version: 6.00 Build 0)  -->
<!DOCTYPE svg PUBLIC "-//W3C//DTD SVG 1.1//EN" "http://www.w3.org/Graphics/SVG/1.1/DTD/svg11.dtd">
<svg class="animation__ring" fill="#f2b81e" viewBox="0 0 1046.2 1046.2" xmlns="http://www.w3.org/2000/svg" style="opacity: 1; transform: matrix(1, 0, 0, 1, 0, 0);">
	<path d="M566.41,345.6H479.79A72.93,72.93,0,0,0,428.21,367L367,428.21a72.94,72.94,0,0,0-21.36,51.57v86.62A72.94,72.94,0,0,0,367,618l61.25,61.25a72.93,72.93,0,0,0,51.57,21.36h86.62A72.94,72.94,0,0,0,618,679.23L679.23,618a72.94,72.94,0,0,0,21.36-51.58V479.79a72.93,72.93,0,0,0-21.36-51.57L618,367a72.94,72.94,0,0,0-51.58-21.36m0,12.68A59.87,59.87,0,0,1,609,375.93l61.25,61.25a59.86,59.86,0,0,1,17.65,42.61v86.62A59.86,59.86,0,0,1,670.27,609L609,670.27a59.86,59.86,0,0,1-42.61,17.65H479.79a59.86,59.86,0,0,1-42.61-17.65L375.93,609a59.87,59.87,0,0,1-17.65-42.61V479.79a59.87,59.87,0,0,1,17.65-42.61l61.25-61.25a59.87,59.87,0,0,1,42.61-17.65h86.62"></path>
	<path d="M653.68,0H392.52a207.85,207.85,0,0,0-147,60.88L60.88,245.55A207.84,207.84,0,0,0,0,392.52V653.68a207.84,207.84,0,0,0,60.88,147L245.55,985.32a207.84,207.84,0,0,0,147,60.88H653.68a207.84,207.84,0,0,0,147-60.88L985.32,800.65a207.84,207.84,0,0,0,60.88-147V392.52a207.84,207.84,0,0,0-60.88-147L800.65,60.88A207.84,207.84,0,0,0,653.68,0m0,3.8A204,204,0,0,1,798,63.57L982.63,248.24a204,204,0,0,1,59.76,144.28V653.68A204,204,0,0,1,982.63,798L798,982.63a204,204,0,0,1-144.28,59.76H392.52a204,204,0,0,1-144.28-59.76L63.57,798A204,204,0,0,1,3.8,653.68V392.52A204,204,0,0,1,63.57,248.24L248.24,63.57A204,204,0,0,1,392.52,3.8H653.68"></path>
	<path d="M626.46,66.7H420.54a208,208,0,0,0-147,60.83L127.9,273A207.58,207.58,0,0,0,67,419.85v205.7a207.58,207.58,0,0,0,60.9,146.87L273.51,917.86a208,208,0,0,0,147,60.83H626.46a208,208,0,0,0,147-60.83L919.1,772.41A207.58,207.58,0,0,0,980,625.55V419.85A207.58,207.58,0,0,0,919.1,273L773.49,127.53a208,208,0,0,0-147-60.83m0,6.33A201.69,201.69,0,0,1,769,132L914.62,277.46a201.26,201.26,0,0,1,59,142.39v205.7a201.25,201.25,0,0,1-59,142.39L769,913.38a201.69,201.69,0,0,1-142.54,59H420.54a201.7,201.7,0,0,1-142.54-59L132.38,767.93a201.25,201.25,0,0,1-59-142.39V419.85a201.26,201.26,0,0,1,59-142.39L278,132A201.7,201.7,0,0,1,420.54,73H626.46"></path>
	<path d="M634.9,134.7H412.1a119.06,119.06,0,0,0-84.19,34.87L170.37,327.11A119.06,119.06,0,0,0,135.5,411.3V634.1a119.06,119.06,0,0,0,34.87,84.19L327.91,875.82A119.05,119.05,0,0,0,412.1,910.7H634.9a119.06,119.06,0,0,0,84.19-34.87L876.63,718.28A119.06,119.06,0,0,0,911.5,634.1V411.3a119.06,119.06,0,0,0-34.87-84.19L719.09,169.57A119.07,119.07,0,0,0,634.9,134.7m0,8.88a109.46,109.46,0,0,1,77.91,32.27L870.35,333.39a109.46,109.46,0,0,1,32.27,77.91V634.1A109.46,109.46,0,0,1,870.35,712L712.81,869.55a109.46,109.46,0,0,1-77.91,32.27H412.1a109.47,109.47,0,0,1-77.91-32.27L176.65,712a109.46,109.46,0,0,1-32.27-77.91V411.3a109.46,109.46,0,0,1,32.27-77.91L334.19,175.84a109.47,109.47,0,0,1,77.91-32.27H634.9"></path>
	<path d="M615.73,204.7H431.27a95.34,95.34,0,0,0-67.41,27.92L233.42,363.05a95.33,95.33,0,0,0-27.92,67.41V614.93a95.33,95.33,0,0,0,27.92,67.41L363.86,812.77a95.34,95.34,0,0,0,67.41,27.92H615.73a95.33,95.33,0,0,0,67.41-27.92L813.58,682.34a95.33,95.33,0,0,0,27.92-67.41V430.47a95.33,95.33,0,0,0-27.92-67.41L683.14,232.62a95.33,95.33,0,0,0-67.41-27.92m0,10.14a84.64,84.64,0,0,1,60.24,25L806.41,370.22a84.64,84.64,0,0,1,25,60.24V614.93a84.64,84.64,0,0,1-25,60.24L676,805.61a84.64,84.64,0,0,1-60.24,25H431.27a84.64,84.64,0,0,1-60.24-25L240.59,675.17a84.64,84.64,0,0,1-25-60.24V430.47a84.64,84.64,0,0,1,25-60.24L371,239.79a84.64,84.64,0,0,1,60.24-25H615.73"></path>
	<path d="M594.36,274.2H452.65a77.44,77.44,0,0,0-54.76,22.68L297.68,397.08A77.44,77.44,0,0,0,275,451.84V593.55a77.44,77.44,0,0,0,22.68,54.76L397.89,748.52a77.44,77.44,0,0,0,54.76,22.68H594.36a77.44,77.44,0,0,0,54.76-22.68L749.32,648.31A77.44,77.44,0,0,0,772,593.55V451.84a77.44,77.44,0,0,0-22.68-54.76L649.11,296.88a77.44,77.44,0,0,0-54.76-22.68m0,11.41A65.59,65.59,0,0,1,641,304.95L741.25,405.15a65.59,65.59,0,0,1,19.34,46.69V593.55a65.59,65.59,0,0,1-19.34,46.69L641,740.45a65.59,65.59,0,0,1-46.69,19.34H452.65A65.6,65.6,0,0,1,406,740.45L305.75,640.24a65.59,65.59,0,0,1-19.34-46.69V451.84a65.59,65.59,0,0,1,19.34-46.69L406,304.95a65.6,65.6,0,0,1,46.69-19.34H594.36"></path>
</svg>