<svg xmlns="http://www.w3.org/2000/svg" width="128" height="128" viewBox="0 0 128 128">
  <defs>
    <style>
      .cls-1 {
        fill: #1548e0;
        fill-rule: evenodd;
      }
    </style>
  </defs>
  <path id="msg" class="cls-1" d="M122.325,89l2.046,17.051,0.38,0.25-0.3.45,0.26,2.17,0.792,5.545-0.5.071v2.385h-0.051l0.157,0.314-0.557.279,0.208,0.208-1.044,1.044-0.556-.556-0.051.025-0.076-.153-2.414-2.413-0.195.292-1.421-.947,0,0-4.137-2.724-0.261.031-0.027-.221L79.5,89H-1V79H0V8H128V89h-5.675ZM119,18H10V79H81.38l0.579-.879L83.293,79H84v0.466l28.957,19.069L111.813,89H111V79h8V18ZM85,45H97V55H85V45ZM57,45H69V55H57V45ZM31,45H43V55H31V45Z"/>
</svg>
